<svg width="28" height="28" fill="none" xmlns="http://www.w3.org/2000/svg"><path fill-rule="evenodd" clip-rule="evenodd" d="M0 14a14 14 0 1 1 28 0 14 14 0 0 1-28 0Zm22.4-4.5v.3c-.2 1-2 3.5-2.5 4.2l-.1.3a1 1 0 0 0-.2.4l.2.4 1 1.3c.8 1 1.4 2 1.6 2.4v.3c0 .3-.3.5-.7.5H20c-.5 0-.7-.3-1.3-1l-.8-1.1c-1-1.2-1.6-1.4-1.9-1.4-.4 0-.5.1-.5.6v2.1c0 .5-.1.8-1.3.8-2 0-4.1-1.3-5.8-3.6a13.1 13.1 0 0 1-2.7-6.4c0-.2 0-.5.6-.5h1.9c.4 0 .6.2.8.7.8 2.8 2 4.9 2.7 4.9.2 0 .3-.1.3-.7v-2.6c0-.8-.3-1.1-.5-1.4l-.2-.5c0-.2.2-.4.4-.4H15c.4 0 .5.2.5.7v3.6c0 .4.3.6.4.6.3 0 .5 0 1-.4 1.2-1.6 2.4-4 2.4-4 .1-.2.3-.5.8-.5h1.8c.4 0 .6.2.6.4Z" fill="#fff"/></svg>