<svg width="28" height="28" viewBox="0 0 28 28" fill="none" xmlns="http://www.w3.org/2000/svg">
<path fill-rule="evenodd" clip-rule="evenodd" d="M0 14C0 6.26802 6.26802 0 14 0C21.732 0 28 6.26802 28 14C28 21.732 21.732 28 14 28C6.26802 28 0 21.732 0 14ZM22.3993 9.53751C22.4035 9.625 22.3881 9.72301 22.3559 9.82871C22.1609 10.7748 20.4425 13.2921 19.9226 14.0537C19.8266 14.1943 19.7715 14.2751 19.7743 14.2751C19.6735 14.4473 19.6063 14.5705 19.6 14.7C19.5937 14.8232 19.6434 14.952 19.7743 15.1347C19.9696 15.4147 20.3945 15.9299 20.825 16.45C21.602 17.3894 22.225 18.375 22.3608 18.7782C22.3895 18.8881 22.4021 18.9868 22.4 19.075C22.3902 19.4215 22.1459 19.6 21.7203 19.6H19.8877C19.405 19.6 19.1516 19.2678 18.6352 18.5908C18.4087 18.2939 18.1317 17.9306 17.7625 17.5C16.7125 16.275 16.1686 16.1 15.9019 16.1C15.5281 16.1 15.4 16.1931 15.3993 16.7538V18.8342C15.3993 19.3011 15.2789 19.6 14.1043 19.6C12.1653 19.6 9.975 18.2875 8.3125 16.0125C6.02 12.8751 5.6 10.1465 5.6 9.64181C5.6 9.3618 5.6889 9.10001 6.223 9.10001H8.0731C8.5358 9.10001 8.7136 9.30581 8.8914 9.84761C9.7125 12.6 10.9389 14.7 11.5619 14.7C11.7929 14.7 11.9 14.588 11.9 13.972V11.4359C11.856 10.6289 11.5999 10.277 11.4101 10.0163C11.2923 9.85439 11.2 9.7276 11.2 9.54871C11.2 9.32401 11.3484 9.10001 11.6333 9.10001H14.8876C15.2789 9.10001 15.4 9.32401 15.4 9.8098V13.4393C15.4 13.8502 15.7129 14 15.8368 14C15.8423 14 15.8478 14 15.8533 14C16.0782 14.0003 16.295 14.0005 16.7118 13.5625C18.0285 12.012 19.1709 9.66071 19.1709 9.66071C19.2955 9.38001 19.509 9.10001 19.9717 9.10001H21.8043C22.2145 9.10001 22.3888 9.28411 22.3993 9.53751Z" fill="white"/>
</svg>
