<?xml version="1.0" standalone="no"?>
<!DOCTYPE svg PUBLIC "-//W3C//DTD SVG 20010904//EN"
 "http://www.w3.org/TR/2001/REC-SVG-20010904/DTD/svg10.dtd">
<svg version="1.0" xmlns="http://www.w3.org/2000/svg"
 width="700.000000pt" height="700.000000pt" viewBox="0 0 700.000000 700.000000"
 preserveAspectRatio="xMidYMid meet">
<metadata>
Created by potrace 1.14, written by Peter Selinger 2001-2017
</metadata>
<g transform="translate(0.000000,700.000000) scale(0.100000,-0.100000)"
fill="#000000" stroke="none">
<path d="M3680 6016 c-150 -36 -244 -163 -235 -319 10 -152 110 -263 265 -293
76 -15 160 -39 195 -56 108 -54 407 -280 513 -387 239 -244 401 -629 437
-1046 12 -132 7 -382 -10 -495 -2 -14 -7 -50 -10 -80 -12 -100 -55 -303 -87
-405 -48 -156 -97 -270 -188 -430 -66 -117 -225 -313 -322 -397 -58 -50 -163
-128 -172 -128 -2 0 -41 -21 -87 -46 -108 -60 -144 -72 -232 -79 -115 -9 -207
-32 -282 -70 -82 -42 -123 -90 -153 -179 -39 -117 -13 -226 76 -314 70 -69
117 -86 242 -86 128 -1 195 7 323 40 254 64 375 140 628 393 282 284 513 627
669 996 4 11 15 36 23 55 69 159 176 565 202 770 27 216 27 545 0 705 -22 129
-31 173 -56 265 -58 219 -146 430 -251 604 -34 55 -65 104 -69 110 -5 6 -37
47 -71 91 -74 96 -236 260 -333 337 -69 54 -309 218 -320 218 -3 0 -11 5 -18
10 -7 6 -40 29 -74 51 -215 137 -449 201 -603 165z"/>
<path d="M2088 5286 c-1 -2 -32 -6 -68 -9 -164 -14 -304 -107 -372 -247 -27
-55 -32 -79 -36 -161 -7 -153 37 -268 144 -373 79 -78 172 -111 288 -103 142
11 267 62 347 141 165 164 189 404 60 596 -59 88 -148 135 -276 146 -33 3 -65
7 -72 9 -6 2 -13 2 -15 1z"/>
<path d="M1970 2914 c-145 -30 -266 -121 -324 -244 -28 -58 -31 -76 -33 -170
-2 -125 15 -187 79 -283 82 -123 184 -180 323 -180 267 0 481 170 513 408 11
81 6 141 -15 205 -20 60 -66 141 -100 175 -32 32 -103 69 -153 81 -19 4 -42 9
-50 11 -41 11 -183 8 -240 -3z"/>
</g>
</svg>
